#!OML:ASF F:\VICON\USERDATA\INSTALL\rory3\rory3.ASF
:FULLY-SPECIFIED
:DEGREES
522
root 1.19916 16.3006 34.5735 628.894 67.5175 -115.024
lowerback 5.04979 1.6341 -6.0663
upperback -3.80679 1.51955 -7.76776
thorax -6.80706 0.952287 -4.99521
lowerneck -28.2141 8.19068 1.3708
upperneck 21.1691 11.3089 -1.37017
head 11.6886 4.98331 1.28956
rclavicle 1.43125e-014 5.40694e-014
rhumerus -8.42322 -7.53667 -13.949
rradius 36.9618
rwrist -1.67511
rhand -27.9933 -421.604
rfingers 7.12502
rthumb 178.621 -88.4205
lclavicle 1.43125e-014 5.40694e-014
lhumerus -19.3574 -0.121747 48.0579
lradius 34.3339
lwrist 24.3873
lhand -42.677 -755.827
lfingers 7.12502
lthumb -15.5473 -6.4317
rfemur -30.493 -8.80108 39.2872
rtibia 37.2533
rfoot -14.7121 -31.7574
rtoes -6.97939
lfemur -71.2098 21.5841 -14.1537
ltibia 50.197
lfoot -8.92151 38.1344
ltoes 14.8165
523
root 1.13001 16.3054 34.664 629.764 68.3349 -113.934
lowerback 5.05664 1.4285 -5.2346
upperback -3.77698 1.3044 -7.38675
thorax -6.77002 0.804554 -5.02183
lowerneck -25.8811 7.65238 -1.12187
upperneck 18.4422 10.8283 0.691853
head 9.97403 4.97758 2.11086
rclavicle -1.43125e-014 4.45278e-014
rhumerus -7.59617 -7.54796 -14.7291
rradius 38.0095
rwrist -0.123686
rhand -26.93 -421.926
rfingers 7.12502
rthumb 179.648 -88.0941
lclavicle -1.43125e-014 4.45278e-014
lhumerus -20.1845 0.402961 48.6399
lradius 34.0942
lwrist 23.9565
lhand -42.1257 -756.144
lfingers 7.12502
lthumb -15.0163 -6.70823
rfemur -30.7042 -9.79912 39.017
rtibia 37.192
rfoot -13.8241 -31.0115
rtoes -8.70655
lfemur -71.1392 22.2416 -14.8649
ltibia 49.8241
lfoot -6.75235 37.5778
ltoes 13.3403
524
root 1.06654 16.3122 34.7914 631.853 68.926 -111.34
lowerback 5.16267 1.4663 -4.82733
upperback -3.65646 1.37835 -6.88198
thorax -6.69564 0.818806 -4.71007
lowerneck -26.8992 7.88962 -0.0314671
upperneck 19.9807 11.1866 -0.682255
head 10.8709 4.97671 1.62853
rclavicle -2.38542e-014 9.54166e-014
rhumerus -6.82963 -7.35899 -15.55
rradius 38.389
rwrist 0.600843
rhand -27.2061 -421.913
rfingers 7.12502
rthumb 179.381 -88.1078
lclavicle -2.38542e-014 9.54166e-014
lhumerus -20.765 0.813081 49.0202
lradius 33.974
lwrist 23.4965
lhand -43.0954 -756.7
lfingers 7.12502
lthumb -15.9502 -7.33691
rfemur -30.4204 -9.98338 38.9757
rtibia 37.2112
rfoot -14.1301 -30.2259
rtoes -9.48816
lfemur -70.8156 23.4267 -14.8687
ltibia 49.789
lfoot -6.34057 37.0877
ltoes 13.691
525
root 1.00823 16.3047 34.9087 634.183 69.1341 -108.626
lowerback 5.13664 1.72649 -4.08688
upperback -3.65747 1.78066 -6.25114
thorax -6.65367 0.980444 -4.48844
lowerneck -25.7744 7.4584 -0.936311
upperneck 19.0997 10.8016 -0.41709
head 10.2819 4.81866 1.7174
rclavicle -2.54444e-014 -1.27222e-014
rhumerus -6.69648 -6.84488 -15.8614
rradius 38.6198
rwrist 0.810817
rhand -28.5968 -421.885
rfingers 7.12502
rthumb 178.038 -88.1439
lclavicle -2.54444e-014 -1.27222e-014
lhumerus -21.05 0.690488 49.8559
lradius 33.638
lwrist 22.6027
lhand -44.8952 -757.517
lfingers 7.12502
lthumb -17.6828 -8.30138
rfemur -30.1729 -9.41376 39.1339
rtibia 37.2795
rfoot -10.7865 -30.7331
rtoes -15.7418
lfemur -70.8458 24.9423 -14.8163
ltibia 49.8695
lfoot -3.99287 36.0703
ltoes 11.084
526
root 0.95668 16.2998 35.0135 637.143 69.5402 -105.606
lowerback 4.94878 1.77276 -2.67752
upperback -3.87445 1.94486 -6.30783
thorax -6.71716 0.990557 -5.36242
lowerneck -24.9552 7.23912 -1.24045
upperneck 18.6736 10.4247 0.211169
head 9.93072 4.73295 1.8736
rclavicle -4.45278e-014 3.49861e-014
rhumerus -6.81507 -6.93819 -17.4136
rradius 39.7924
rwrist 1.73975
rhand -29.5076 -422.156
rfingers 7.12502
rthumb 177.158 -87.8835
lclavicle -4.45278e-014 3.49861e-014
lhumerus -21.3086 -1.30696 50.0411
lradius 33.0099
lwrist 23.2929
lhand -45.5794 -757.324
lfingers 7.12502
lthumb -18.3411 -8.16906
rfemur -30.31 -9.31936 39.1338
rtibia 37.2579
rfoot -12.9346 -29.4969
rtoes -13.5806
lfemur -71.592 27.1204 -15.9187
ltibia 49.9189
lfoot -1.04498 34.0677
ltoes 7.20668
527
root 0.904822 16.3436 35.1186 640.714 70.1499 -102.082
lowerback 4.49387 1.77964 -2.18426
upperback -4.0739 2.01145 -6.09642
thorax -6.65019 1.0019 -5.407
lowerneck -24.9526 7.26892 -0.680161
upperneck 19.3317 10.4086 -0.196769
head 10.2261 4.69748 1.66965
rclavicle 3.97569e-014 4.45278e-014
rhumerus -6.4828 -6.8408 -18.7655
rradius 41.4937
rwrist 2.47991
rhand -29.0758 -421.961
rfingers 7.12502
rthumb 177.575 -88.0726
lclavicle 3.97569e-014 4.45278e-014
lhumerus -22.0221 -0.741096 50.3958
lradius 32.7518
lwrist 22.3964
lhand -45.2934 -755.615
lfingers 7.12502
lthumb -18.0659 -6.43367
rfemur -30.5192 -9.23643 38.905
rtibia 37.0808
rfoot -12.1031 -28.582
rtoes -14.7394
lfemur -70.2652 25.9448 -13.7398
ltibia 49.7724
lfoot -2.81437 36.6961
ltoes 10.0924
528
root 0.854589 16.3752 35.2276 644.693 70.6637 -98.0697
lowerback 4.00784 1.78618 -2.05335
upperback -4.0477 2.06291 -5.75904
thorax -6.34193 1.02779 -5.09629
lowerneck -25.5229 7.35506 0.100918
upperneck 20.0977 10.4483 -0.818894
head 10.6918 4.66258 1.38951
rclavicle -4.92986e-014 -2.22639e-014
rhumerus -5.71038 -6.86393 -20.1223
rradius 42.7526
rwrist 3.3878
rhand -27.3629 -421.009
rfingers 7.12502
rthumb 179.229 -89.0126
lclavicle -4.92986e-014 -2.22639e-014
lhumerus -22.4311 -0.242842 50.5748
lradius 32.7486
lwrist 22.1383
lhand -45.4317 -754.406
lfingers 7.12502
lthumb -18.199 -5.23705
rfemur -30.6455 -9.13035 38.7171
rtibia 36.9099
rfoot -14.9991 -26.752
rtoes -9.07835
lfemur -69.1984 25.4105 -12.1999
ltibia 49.6019
lfoot -0.537145 38.2011
ltoes 7.16224
529
root 0.805615 16.3992 35.3415 648.838 70.9966 -93.792
lowerback 3.62648 1.77138 -2.01535
upperback -3.92244 2.0761 -5.39372
thorax -5.99718 1.03912 -4.70294
lowerneck -26.8699 7.61678 1.3289
upperneck 21.3492 10.639 -1.66166
head 11.5311 4.67112 1.02641
rclavicle 4.29375e-014 -1.27222e-014
rhumerus -4.73936 -7.00841 -21.7366
rradius 43.5442
rwrist 4.13828
rhand -27.6167 -420.894
rfingers 7.12502
rthumb 178.984 -89.1291
lclavicle 4.29375e-014 -1.27222e-014
lhumerus -22.5974 -0.275457 50.4154
lradius 32.7253
lwrist 22.3318
lhand -45.2511 -753.917
lfingers 7.12502
lthumb -18.0252 -4.7321
rfemur -30.6115 -8.82 38.6287
rtibia 36.7089
rfoot -14.7965 -25.979
rtoes -9.45192
lfemur -68.1507 25.2513 -10.827
ltibia 49.377
lfoot -0.229828 39.758
ltoes 7.56879
530
root 0.757374 16.4217 35.4576 653.142 71.2827 -89.3016
lowerback 3.35802 1.98439 -2.23118
upperback -3.96104 2.36888 -4.85354
thorax -5.89285 1.19952 -4.02109
lowerneck -24.7921 7.09141 -0.714958
upperneck 19.7158 10.2832 -0.539695
head 10.3599 4.58735 1.54373
rclavicle -1.59028e-014 2.22639e-014
rhumerus -4.29372 -6.95168 -22.73
rradius 43.9431
rwrist 4.46263
rhand -29.9976 -421.577
rfingers 7.12502
rthumb 176.685 -88.4686
lclavicle -1.59028e-014 2.22639e-014
lhumerus -22.8873 -0.65522 50.7883
lradius 32.7669
lwrist 22.6811
lhand -44.3587 -754.36
lfingers 7.12502
lthumb -17.1665 -5.0988
rfemur -30.5582 -8.44175 38.4707
rtibia 36.6254
rfoot -12.1802 -26.0174
rtoes -15.4475
lfemur -67.3434 25.8467 -10.092
ltibia 49.1904
lfoot 0.377 40.208
ltoes 7.19528
531
root 0.709842 16.4433 35.5722 657.921 71.6722 -84.3271
lowerback 3.12587 2.30826 -2.40484
upperback -4.07543 2.80607 -4.50083
thorax -5.88259 1.42771 -3.58024
lowerneck -21.8489 6.37105 -3.60867
upperneck 17.1526 9.63537 1.28173
head 8.69004 4.42534 2.30456
rclavicle -3.18055e-015 2.22639e-014
rhumerus -4.14362 -7.40307 -23.7535
rradius 43.8657
rwrist 5.39106
rhand -29.845 -420.395
rfingers 7.12502
rthumb 176.832 -89.649
lclavicle -3.18055e-015 2.22639e-014
lhumerus -23.1727 -1.28603 51.357
lradius 32.9901
lwrist 23.1741
lhand -43.4867 -755.563
lfingers 7.12502
lthumb -16.3271 -6.23041
rfemur -30.5347 -8.16558 38.0763
rtibia 36.5464
rfoot -11.2823 -25.4639
rtoes -17.7183
lfemur -66.7871 27.0885 -10.1303
ltibia 49.0216
lfoot 1.32649 39.7267
ltoes 5.96139
